<svg width="24" height="24" viewBox="0 0 24 24" fill="none" xmlns="http://www.w3.org/2000/svg">
<g clip-path="url(#clip0_5170_2219)">
<path d="M12 24C18.6274 24 24 18.6274 24 12C24 5.37258 18.6274 0 12 0C5.37258 0 0 5.37258 0 12C0 18.6274 5.37258 24 12 24Z" fill="#E4E4E4"/>
<path d="M22.7038 11.9943C22.7044 6.03543 17.978 1.32612 11.9837 1.26025H11.9761C11.9761 1.26025 11.9761 1.26659 11.9761 1.26975C6.01034 1.29445 1.29406 6.08419 1.25416 11.9214C1.21363 17.9113 6.02934 22.7251 11.9863 22.7397V22.7295C17.992 22.6548 22.7032 17.9506 22.7038 11.9943ZM18.6113 15.5446C18.536 15.5883 18.4562 15.6231 18.3777 15.6618C17.9502 15.8708 17.9666 15.8682 18.0217 16.3534C18.106 17.095 17.8887 17.7473 17.4131 18.328C16.6278 19.2862 15.1205 19.2463 14.2162 18.7067C13.1509 18.0715 12.5911 17.0753 12.2801 15.9189C12.1566 15.4604 12.0857 14.9873 11.9863 14.4977V14.4952L11.9749 13.948C11.954 15.3572 11.6322 16.7042 10.7443 17.8613C9.98057 18.8562 8.60882 19.3236 7.51319 18.9626C6.52332 18.6371 6.00907 17.6915 5.95967 16.8081C5.94194 16.4882 5.98627 16.1646 6.0002 15.8809C5.63225 15.6573 5.24656 15.4686 4.91344 15.2134C3.9698 14.4901 3.75384 13.1425 4.40236 12.1513C4.9356 11.3363 5.70001 10.8784 6.65441 10.7219C7.56068 10.5737 8.43149 10.7422 9.29026 11.0177C9.36372 11.0411 9.43782 11.0627 9.57272 11.1026C9.50179 11.0209 9.47392 10.9816 9.43909 10.9493C8.77981 10.3331 8.20413 9.65481 7.89064 8.79287C7.53218 7.80807 7.55815 6.84163 8.14586 5.95183C8.96347 4.71371 10.4283 4.67571 11.4739 5.34385C11.643 5.45151 11.8039 5.57184 11.9679 5.68711C11.9704 5.69914 11.9723 5.71054 11.9761 5.72194C12.3295 5.50155 12.6677 5.21972 13.0496 5.07216C14.4752 4.51991 15.8666 5.28179 16.2535 6.7897C16.5024 7.7593 16.3048 8.66241 15.7811 9.48825C15.517 9.90497 15.1756 10.2729 14.8609 10.6561C14.7627 10.7758 14.6373 10.8739 14.555 11.0297C14.7988 10.9607 15.0401 10.8822 15.2858 10.8233C16.2162 10.5997 17.1421 10.5623 18.0623 10.8917C19.1668 11.2869 19.9926 12.3654 19.9578 13.4521C19.9274 14.4034 19.4176 15.0772 18.6107 15.5433L18.6113 15.5446Z" fill="url(#paint0_linear_5170_2219)"/>
<g filter="url(#filter0_d_5170_2219)">
<path d="M18.0692 10.9109C17.1497 10.5816 16.282 10.581 15.3511 10.8039C15.1053 10.8628 14.7152 10.9781 14.5575 11.0319C14.6398 10.8767 14.769 10.7957 14.8678 10.6753C15.1826 10.2922 15.5239 9.92359 15.788 9.5075C16.3118 8.68166 16.5087 7.77856 16.2605 6.80896C15.8735 5.30041 14.4822 4.53917 13.0566 5.09142C12.6753 5.23898 12.3454 5.52144 11.992 5.74246C11.9831 5.72853 11.9755 5.7241 11.9685 5.7165C11.8007 5.59933 11.6512 5.46317 11.479 5.35297C10.4334 4.68483 8.96853 4.72283 8.15093 5.96095C7.56321 6.85076 7.53725 7.81719 7.8957 8.80199C8.20919 9.66456 8.78487 10.3422 9.44415 10.9584C9.47898 10.9907 9.50685 11.03 9.57778 11.1117C9.44352 11.0712 9.36879 11.0503 9.29532 11.0268C8.43655 10.7513 7.56638 10.5829 6.65948 10.7311C5.70508 10.8869 4.94004 11.3454 4.40742 12.1604C3.75891 13.1516 3.9755 14.4999 4.9185 15.2225C5.25226 15.4784 5.63731 15.6671 6.00527 15.89C5.99133 16.1737 5.94637 16.4967 5.96473 16.8172C6.01477 17.7007 6.53598 18.6836 7.52522 19.0091C8.62085 19.3694 9.98563 18.8653 10.7494 17.8698C11.6373 16.7133 11.978 15.6671 11.9983 14.258C12.0027 13.9711 11.9869 13.3834 11.9901 13.0965L11.9913 14.5037C12.0914 14.9971 12.163 15.4739 12.2871 15.9363C12.598 17.0933 13.1585 18.0889 14.2231 18.7241C15.1275 19.2637 16.6354 19.3029 17.4201 18.3454C17.8957 17.7646 18.1129 17.1123 18.0287 16.3707C17.9736 15.8856 17.9565 15.8881 18.3846 15.6791C18.4625 15.6411 18.5429 15.6057 18.6183 15.562C19.4252 15.0959 19.935 14.4226 19.9654 13.4708C20.0002 12.384 19.1737 11.3055 18.0699 10.9103L18.0692 10.9109Z" fill="white"/>
</g>
<path opacity="0.1" d="M12 24C18.6274 24 24 18.6274 24 12C24 5.37258 18.6274 0 12 0V24Z" fill="black"/>
<path d="M20.0601 3.91724C19.9169 3.89093 19.7849 3.82098 19.6825 3.71749C19.58 3.61401 19.5113 3.48132 19.4861 3.33765L19.2001 1.7998L18.9154 3.33765C18.8891 3.48046 18.8204 3.61198 18.718 3.7146C18.6155 3.81722 18.4841 3.88631 18.3415 3.91233L16.8008 4.19735L18.3415 4.48237C18.4841 4.50896 18.6155 4.57834 18.718 4.68125C18.8204 4.78416 18.8891 4.91569 18.9154 5.05877L19.2001 6.5998L19.4861 5.05877C19.5121 4.91569 19.5811 4.78416 19.6836 4.68125C19.7861 4.57834 19.9174 4.50896 20.0601 4.48237L21.6008 4.19735L20.0601 3.91724Z" fill="white"/>
</g>
<defs>
<filter id="filter0_d_5170_2219" x="1.63516" y="3.11162" width="20.7313" height="19.0139" filterUnits="userSpaceOnUse" color-interpolation-filters="sRGB">
<feFlood flood-opacity="0" result="BackgroundImageFix"/>
<feColorMatrix in="SourceAlpha" type="matrix" values="0 0 0 0 0 0 0 0 0 0 0 0 0 0 0 0 0 0 127 0" result="hardAlpha"/>
<feOffset dy="0.6"/>
<feGaussianBlur stdDeviation="1.2"/>
<feComposite in2="hardAlpha" operator="out"/>
<feColorMatrix type="matrix" values="0 0 0 0 0 0 0 0 0 0 0 0 0 0 0 0 0 0 0.13 0"/>
<feBlend mode="normal" in2="BackgroundImageFix" result="effect1_dropShadow_5170_2219"/>
<feBlend mode="normal" in="SourceGraphic" in2="effect1_dropShadow_5170_2219" result="shape"/>
</filter>
<linearGradient id="paint0_linear_5170_2219" x1="27.9014" y1="-3.25843" x2="-0.694542" y2="24.1583" gradientUnits="userSpaceOnUse">
<stop offset="0.186388" stop-color="#AEAEAE"/>
<stop offset="0.315739" stop-color="#D8D8D8"/>
<stop offset="0.448356" stop-color="#EFEFEF"/>
<stop offset="0.597261" stop-color="#BABABA"/>
<stop offset="0.76" stop-color="#F5F5F5"/>
<stop offset="0.996796" stop-color="#525252"/>
</linearGradient>
<clipPath id="clip0_5170_2219">
<rect width="24" height="24" fill="white"/>
</clipPath>
</defs>
</svg>
